<svg width="24" height="12" viewBox="0 0 24 12" fill="none" xmlns="http://www.w3.org/2000/svg">
<path d="M0 0H23.8217V12H0V0Z" fill="#0039A6"/>
<path d="M0 0V1.34063L21.158 12H23.8217V10.6594L2.66365 0H0ZM23.8217 0V1.34063L2.66365 12H0V10.6594L21.158 0H23.8217Z" fill="white"/>
<path d="M9.92646 0V12H13.8952V0H9.92646ZM0 4.00078V7.99922H23.8217V4.00078H0Z" fill="white"/>
<path d="M0 4.8V7.2H23.8217V4.8H0ZM10.7197 0V12H13.1019V0H10.7197ZM0 12L7.93977 7.99922H9.71709L1.77499 12H0ZM0 0L7.93977 4.00078H6.16478L0 0.895313V0ZM14.1069 4.00078L22.0467 0H23.8217L15.8819 4.00078H14.1069ZM23.8217 12L15.8819 7.99922H17.6569L23.8217 11.1047V12Z" fill="#D52B1E"/>
</svg>
