<svg width="162" height="292" viewBox="0 0 162 292" fill="none" xmlns="http://www.w3.org/2000/svg">
<path opacity="0.5" fill-rule="evenodd" clip-rule="evenodd" d="M30.8812 10.0192C49.4974 4.13287 75.1845 0.5 103.536 0.5C103.812 0.5 104.036 0.723858 104.036 1C104.036 1.27614 103.812 1.5 103.536 1.5C75.2578 1.5 49.6771 5.12484 31.1827 10.9727C21.9326 13.8975 14.4832 17.3697 9.35711 21.2018C4.22207 25.0406 1.5 29.1752 1.5 33.4211C1.5 37.667 4.22207 41.8016 9.35711 45.6404C12.1586 47.7347 15.654 49.7215 19.758 51.5702C23.104 50.0848 26.8276 48.6946 30.8812 47.4129C49.4974 41.5265 75.1845 37.8937 103.536 37.8937C119.431 37.8937 133.838 39.432 144.285 41.9271C149.505 43.1737 153.764 44.6656 156.73 46.3405C159.656 47.9926 161.5 49.9258 161.5 52.118C161.5 54.3101 159.656 56.2433 156.73 57.8955C153.764 59.5704 149.505 61.0623 144.285 62.3089C133.838 64.804 119.431 66.3423 103.536 66.3423C75.1845 66.3423 49.4974 62.7094 30.8812 56.8231C26.8276 55.5413 23.104 54.1511 19.758 52.6657C15.654 54.5144 12.1586 56.5012 9.35711 58.5955C4.22207 62.4343 1.5 66.5688 1.5 70.8148C1.5 75.0607 4.22208 79.1954 9.35711 83.0342C12.1798 85.1443 15.7069 87.1454 19.8512 89.006C23.1729 87.5272 26.8647 86.1426 30.8804 84.8651C49.4968 78.9426 75.1843 75.2874 103.536 75.2874C119.431 75.2874 133.838 76.8257 144.285 79.3208C149.505 80.5674 153.764 82.0592 156.73 83.7342C159.656 85.3863 161.5 87.3195 161.5 89.5117C161.5 91.7038 159.656 93.6371 156.73 95.2893C153.764 96.9643 149.505 98.4562 144.285 99.7028C133.838 102.198 119.431 103.736 103.536 103.736C75.1845 103.736 49.4974 100.103 30.8812 94.217C26.8657 92.9473 23.174 91.5712 19.8524 90.1014C15.7081 91.9734 12.181 93.9867 9.35828 96.1098C4.2237 99.9718 1.5 104.133 1.5 108.407C1.5 112.682 4.2237 116.843 9.35828 120.705C12.1811 122.828 15.7083 124.841 19.8528 126.714C23.1743 125.244 26.8659 123.868 30.8812 122.598C49.4974 116.712 75.1845 113.079 103.536 113.079C119.431 113.079 133.838 114.617 144.285 117.112C149.505 118.359 153.764 119.851 156.73 121.525C159.656 123.178 161.5 125.111 161.5 127.303C161.5 129.495 159.656 131.428 156.73 133.081C153.764 134.756 149.505 136.248 144.285 137.494C133.838 139.989 119.431 141.528 103.536 141.528C75.1843 141.528 49.4968 137.872 30.8804 131.95C26.8649 130.672 23.1731 129.288 19.8515 127.809C15.7071 129.67 12.1798 131.671 9.35711 133.781C4.22207 137.619 1.5 141.754 1.5 146C1.5 150.246 4.22207 154.381 9.35711 158.219C12.1586 160.314 15.6541 162.3 19.7582 164.149C23.1042 162.664 26.8277 161.273 30.8812 159.992C49.4974 154.105 75.1845 150.472 103.536 150.472C119.431 150.472 133.838 152.011 144.285 154.506C149.505 155.752 153.764 157.244 156.73 158.919C159.656 160.572 161.5 162.505 161.5 164.697C161.5 166.889 159.656 168.822 156.73 170.475C153.764 172.149 149.505 173.641 144.285 174.888C133.838 177.383 119.431 178.921 103.536 178.921C75.1845 178.921 49.4974 175.288 30.8812 169.402C26.8277 168.12 23.1042 166.73 19.7582 165.245C15.6541 167.093 12.1586 169.08 9.35711 171.175C4.22208 175.013 1.5 179.148 1.5 183.394C1.5 187.64 4.22207 191.775 9.35711 195.613C12.1586 197.708 15.6539 199.694 19.7579 201.543C23.1039 200.058 26.8276 198.667 30.8812 197.386C49.4974 191.499 75.1845 187.866 103.536 187.866C119.431 187.866 133.838 189.405 144.285 191.9C149.505 193.146 153.764 194.638 156.73 196.313C159.656 197.966 161.5 199.899 161.5 202.091C161.5 204.283 159.656 206.216 156.73 207.868C153.764 209.543 149.505 211.035 144.285 212.281C133.838 214.776 119.431 216.315 103.536 216.315C75.1845 216.315 49.4974 212.682 30.8812 206.796C26.8276 205.514 23.1039 204.124 19.7579 202.638C15.6539 204.487 12.1586 206.474 9.3571 208.568C4.22206 212.407 1.5 216.541 1.5 220.787C1.5 225.033 4.22208 229.167 9.35711 233.006C12.1799 235.117 15.7071 237.118 19.8515 238.978C23.1731 237.5 26.8649 236.115 30.8804 234.838C49.4968 228.915 75.1843 225.26 103.536 225.26C119.431 225.26 133.838 226.799 144.285 229.294C149.505 230.54 153.764 232.032 156.73 233.707C159.656 235.359 161.5 237.292 161.5 239.484C161.5 241.676 159.656 243.609 156.73 245.262C153.764 246.937 149.505 248.428 144.285 249.675C133.838 252.17 119.431 253.709 103.536 253.709C75.1845 253.709 49.4974 250.076 30.8812 244.189C26.8659 242.92 23.1743 241.543 19.8528 240.074C15.7083 241.946 12.181 243.959 9.35828 246.082C4.22369 249.944 1.5 254.105 1.5 258.38C1.5 262.654 4.2237 266.815 9.35828 270.677C14.4843 274.533 21.9336 278.026 31.1835 280.969C49.6776 286.853 75.2581 290.5 103.536 290.5C103.812 290.5 104.036 290.724 104.036 291C104.036 291.276 103.812 291.5 103.536 291.5C75.1843 291.5 49.4968 287.845 30.8804 281.922C21.575 278.962 14.0083 275.426 8.75718 271.476C3.51462 267.533 0.5 263.113 0.5 258.38C0.5 253.647 3.51463 249.226 8.75718 245.283C11.464 243.247 14.7861 241.321 18.6445 239.527C14.7866 237.745 11.4649 235.831 8.75835 233.807C3.51624 229.888 0.5 225.494 0.5 220.787C0.5 216.08 3.51626 211.686 8.75836 207.767C11.4429 205.76 14.7327 203.861 18.5506 202.091C14.7327 200.32 11.4429 198.421 8.75836 196.414C3.51625 192.495 0.5 188.101 0.5 183.394C0.5 178.687 3.51624 174.293 8.75835 170.374C11.443 168.367 14.7329 166.467 18.5509 164.697C14.7329 162.926 11.443 161.027 8.75836 159.02C3.51625 155.101 0.5 150.707 0.5 146C0.5 141.293 3.51625 136.899 8.75836 132.98C11.4649 130.956 14.7866 129.043 18.6445 127.26C14.7861 125.466 11.464 123.54 8.75718 121.504C3.51462 117.561 0.5 113.14 0.5 108.407C0.5 103.674 3.51462 99.2538 8.75718 95.3106C11.4639 93.2747 14.7859 91.3489 18.6442 89.5551C14.7864 87.7724 11.4648 85.8584 8.75835 83.8351C3.51624 79.9162 0.5 75.5217 0.5 70.8148C0.5 66.1079 3.51625 61.7134 8.75836 57.7945C11.4429 55.7876 14.7328 53.8883 18.5507 52.1179C14.7328 50.3476 11.4429 48.4482 8.75836 46.4413C3.51624 42.5225 0.5 38.128 0.5 33.4211C0.5 28.7142 3.51625 24.3197 8.75836 20.4009C14.0094 16.4754 21.576 12.9614 30.8812 10.0192ZM21.0955 239.525C24.1554 240.839 27.5285 242.08 31.1827 243.236C49.6771 249.084 75.2578 252.709 103.536 252.709C119.377 252.709 133.702 251.175 144.053 248.702C149.232 247.465 153.389 246 156.238 244.391C159.128 242.759 160.5 241.082 160.5 239.484C160.5 237.886 159.128 236.209 156.238 234.578C153.389 232.969 149.232 231.503 144.053 230.266C133.702 227.794 119.377 226.26 103.536 226.26C75.2581 226.26 49.6776 229.907 31.1835 235.791C27.529 236.953 24.1556 238.202 21.0955 239.525ZM21.001 202.091C24.0859 203.42 27.4909 204.675 31.1827 205.842C49.6771 211.69 75.2578 215.315 103.536 215.315C119.377 215.315 133.702 213.781 144.053 211.309C149.232 210.072 153.389 208.606 156.238 206.997C159.128 205.366 160.5 203.689 160.5 202.091C160.5 200.493 159.128 198.816 156.238 197.184C153.389 195.575 149.232 194.11 144.053 192.872C133.702 190.4 119.377 188.866 103.536 188.866C75.2578 188.866 49.6771 192.491 31.1827 198.339C27.4909 199.506 24.0859 200.761 21.001 202.091ZM21.0013 164.697C24.0861 166.027 27.491 167.281 31.1827 168.448C49.6771 174.296 75.2578 177.921 103.536 177.921C119.377 177.921 133.702 176.387 144.053 173.915C149.232 172.678 153.389 171.213 156.238 169.604C159.128 167.972 160.5 166.295 160.5 164.697C160.5 163.099 159.128 161.422 156.238 159.79C153.389 158.181 149.232 156.716 144.053 155.478C133.702 153.006 119.377 151.472 103.536 151.472C75.2578 151.472 49.6771 155.097 31.1827 160.945C27.491 162.113 24.0861 163.367 21.0013 164.697ZM21.0955 127.263C24.1556 128.586 27.529 129.834 31.1835 130.997C49.6776 136.881 75.2581 140.528 103.536 140.528C119.377 140.528 133.702 138.994 144.053 136.522C149.232 135.285 153.389 133.819 156.238 132.21C159.128 130.578 160.5 128.901 160.5 127.303C160.5 125.705 159.128 124.028 156.238 122.396C153.389 120.787 149.232 119.322 144.053 118.085C133.702 115.613 119.377 114.079 103.536 114.079C75.2578 114.079 49.6771 117.704 31.1827 123.552C27.5285 124.707 24.1554 125.948 21.0955 127.263ZM21.0951 89.5523C24.1551 90.8671 27.5284 92.108 31.1827 93.2635C49.6771 99.1115 75.2578 102.736 103.536 102.736C119.377 102.736 133.702 101.202 144.053 98.7302C149.232 97.4932 153.389 96.0276 156.238 94.4186C159.128 92.7868 160.5 91.1095 160.5 89.5117C160.5 87.9139 159.128 86.2367 156.238 84.6049C153.389 82.9959 149.232 81.5304 144.053 80.2934C133.702 77.8213 119.377 76.2874 103.536 76.2874C75.2581 76.2874 49.6776 79.9344 31.1835 85.818C27.5289 86.9807 24.1553 88.2293 21.0951 89.5523ZM21.001 52.1179C24.0859 53.4477 27.4909 54.7023 31.1827 55.8696C49.6771 61.7174 75.2578 65.3423 103.536 65.3423C119.377 65.3423 133.702 63.8083 144.053 61.3362C149.232 60.0992 153.389 58.6337 156.238 57.0247C159.128 55.393 160.5 53.7157 160.5 52.118C160.5 50.5203 159.128 48.843 156.238 47.2112C153.389 45.6022 149.232 44.1368 144.053 42.8998C133.702 40.4276 119.377 38.8937 103.536 38.8937C75.2578 38.8937 49.6771 42.5185 31.1827 48.3663C27.4909 49.5336 24.0859 50.7882 21.001 52.1179Z" fill="#A1A6B4"/>
</svg>
